<svg height='100px' width='100px'  fill="#FFFFFF" xmlns="http://www.w3.org/2000/svg" xmlns:xlink="http://www.w3.org/1999/xlink" version="1.1" x="0px" y="0px" viewBox="0 0 100 100" enable-background="new 0 0 100 100" xml:space="preserve"><path d="M50,5C25.146,5,5,25.146,5,50c0,24.854,20.146,45,45,45c24.854,0,45-20.146,45-45C95,25.146,74.854,5,50,5z M49.748,22.845  c4.302,0,5.77,3.428,5.654,5.945c0,3.546-2.479,6.055-5.995,6.055c-3.509,0-5.998-2.741-5.998-5.939  C43.409,25.703,45.673,22.845,49.748,22.845z M59.79,74.654H40.515v-9h4.942l0.03-18.226H40.21v-9h14.292l-0.045,27.226h5.333  V74.654z"></path></svg>