<svg height='100px' width='100px'  fill="#FFFFFF" xmlns="http://www.w3.org/2000/svg" xmlns:xlink="http://www.w3.org/1999/xlink" version="1.1" x="0px" y="0px" viewBox="0 0 44 58" style="enable-background:new 0 0 44 58;" xml:space="preserve"><style type="text/css">
	.st0{fill:#FFFFFF;}
</style><g><g><path class="st0" d="M12,18.5c0-0.8,0.7-1.5,1.5-1.5H11h-1H4.5C3.7,17,3,17.7,3,18.5v0C3,19.3,3.7,20,4.5,20H10h1    h2.5C12.7,20,12,19.3,12,18.5z"></path><path class="st0" d="M16,17h-2h-0.5c0.8,0,1.5,0.7,1.5,1.5S14.3,20,13.5,20H14h2h23.5c0.8,0,1.5-0.7,1.5-1.5v0    c0-0.8-0.7-1.5-1.5-1.5H16z"></path><path class="st0" d="M13.5,14C11,14,9,16,9,18.5s2,4.5,4.5,4.5s4.5-2,4.5-4.5S16,14,13.5,14z M13.5,20    c-0.8,0-1.5-0.7-1.5-1.5s0.7-1.5,1.5-1.5s1.5,0.7,1.5,1.5S14.3,20,13.5,20z"></path><path class="st0" d="M12,46.5c0-0.8,0.7-1.5,1.5-1.5H11h-1H4.5C3.7,45,3,45.7,3,46.5l0,0C3,47.3,3.7,48,4.5,48H10    h1h2.5C12.7,48,12,47.3,12,46.5z"></path><path class="st0" d="M16,45h-2h-0.5c0.8,0,1.5,0.7,1.5,1.5S14.3,48,13.5,48H14h2h23.5c0.8,0,1.5-0.7,1.5-1.5l0,0    c0-0.8-0.7-1.5-1.5-1.5H16z"></path><path class="st0" d="M13.5,42C11,42,9,44,9,46.5s2,4.5,4.5,4.5s4.5-2,4.5-4.5S16,42,13.5,42z M13.5,48    c-0.8,0-1.5-0.7-1.5-1.5s0.7-1.5,1.5-1.5s1.5,0.7,1.5,1.5S14.3,48,13.5,48z"></path><path class="st0" d="M32,32.5c0,0.8-0.7,1.5-1.5,1.5H33h1h5.5c0.8,0,1.5-0.7,1.5-1.5l0,0c0-0.8-0.7-1.5-1.5-1.5    H34h-1h-2.5C31.3,31,32,31.7,32,32.5z"></path><path class="st0" d="M28,34h2h0.5c-0.8,0-1.5-0.7-1.5-1.5s0.7-1.5,1.5-1.5H30h-2H4.5C3.7,31,3,31.7,3,32.5l0,0    C3,33.3,3.7,34,4.5,34H28z"></path><path class="st0" d="M30.5,37c2.5,0,4.5-2,4.5-4.5S33,28,30.5,28S26,30,26,32.5S28,37,30.5,37z M30.5,31    c0.8,0,1.5,0.7,1.5,1.5S31.3,34,30.5,34S29,33.3,29,32.5S29.7,31,30.5,31z"></path></g><g><path d="M12,18.5c0-0.8,0.7-1.5,1.5-1.5H11h-1H4.5C3.7,17,3,17.7,3,18.5v0C3,19.3,3.7,20,4.5,20H10h1h2.5    C12.7,20,12,19.3,12,18.5z"></path><path d="M16,17h-2h-0.5c0.8,0,1.5,0.7,1.5,1.5S14.3,20,13.5,20H14h2h23.5c0.8,0,1.5-0.7,1.5-1.5v0    c0-0.8-0.7-1.5-1.5-1.5H16z"></path><path d="M13.5,14C11,14,9,16,9,18.5s2,4.5,4.5,4.5s4.5-2,4.5-4.5S16,14,13.5,14z M13.5,20c-0.8,0-1.5-0.7-1.5-1.5    s0.7-1.5,1.5-1.5s1.5,0.7,1.5,1.5S14.3,20,13.5,20z"></path><path d="M12,46.5c0-0.8,0.7-1.5,1.5-1.5H11h-1H4.5C3.7,45,3,45.7,3,46.5l0,0C3,47.3,3.7,48,4.5,48H10h1h2.5    C12.7,48,12,47.3,12,46.5z"></path><path d="M16,45h-2h-0.5c0.8,0,1.5,0.7,1.5,1.5S14.3,48,13.5,48H14h2h23.5c0.8,0,1.5-0.7,1.5-1.5l0,0    c0-0.8-0.7-1.5-1.5-1.5H16z"></path><path d="M13.5,42C11,42,9,44,9,46.5s2,4.5,4.5,4.5s4.5-2,4.5-4.5S16,42,13.5,42z M13.5,48c-0.8,0-1.5-0.7-1.5-1.5    s0.7-1.5,1.5-1.5s1.5,0.7,1.5,1.5S14.3,48,13.5,48z"></path><path d="M32,32.5c0,0.8-0.7,1.5-1.5,1.5H33h1h5.5c0.8,0,1.5-0.7,1.5-1.5l0,0c0-0.8-0.7-1.5-1.5-1.5H34h-1h-2.5    C31.3,31,32,31.7,32,32.5z"></path><path d="M28,34h2h0.5c-0.8,0-1.5-0.7-1.5-1.5s0.7-1.5,1.5-1.5H30h-2H4.5C3.7,31,3,31.7,3,32.5l0,0    C3,33.3,3.7,34,4.5,34H28z"></path><path d="M30.5,37c2.5,0,4.5-2,4.5-4.5S33,28,30.5,28S26,30,26,32.5S28,37,30.5,37z M30.5,31c0.8,0,1.5,0.7,1.5,1.5    S31.3,34,30.5,34S29,33.3,29,32.5S29.7,31,30.5,31z"></path></g></g></svg>