<svg height='100px' width='100px'  fill="#FFFFFF" xmlns="http://www.w3.org/2000/svg" xmlns:xlink="http://www.w3.org/1999/xlink" xml:space="preserve" version="1.1" style="shape-rendering:geometricPrecision;text-rendering:geometricPrecision;image-rendering:optimizeQuality;" viewBox="0 0 333 333" x="0px" y="0px" fill-rule="evenodd" clip-rule="evenodd"><defs><style type="text/css">
   
    .fil0 {fill:#FFFFFF}
   
  </style></defs><g><path class="fil0" d="M32 38l270 0c13,0 23,11 23,24l0 210c0,13 -10,23 -23,23l-270 0c-13,0 -24,-10 -24,-23l0 -210c0,-13 11,-24 24,-24zm34 51l73 0 0 28 -45 0 0 47 -28 0 0 -75zm202 80l0 76 -73 0 0 -29 44 0 0 -47 29 0zm-233 -104l263 0 0 204 -263 0 0 -204z"></path></g></svg>